<svg xmlns="http://www.w3.org/2000/svg" width="375" height="160" viewBox="0 0 375 160">
    <g fill="none" fill-rule="evenodd">
        <g fill-rule="nonzero">
            <path fill="#FFF" d="M167.202 107.436c50.142 16.098 95.849 13.507 102.088-5.787 6.24-19.295-29.35-47.986-79.492-64.085-50.142-16.098-95.849-13.507-102.088 5.787-6.24 19.295 29.35 47.986 79.492 64.085z"/>
            <path fill="#BABABA" d="M228.009 120c-18.198 0-39.696-3.738-61.373-10.681-24.532-7.922-46.387-18.96-61.641-31.243-15.7-12.64-22.48-25.19-19.18-35.337 6.691-20.65 52.632-23.677 104.55-6.943 24.53 7.922 46.386 18.96 61.64 31.243 15.7 12.64 22.48 25.19 19.18 35.337-3.301 10.147-16.147 16.289-36.307 17.446-2.141.178-4.55.178-6.87.178zM129.08 28.675c-2.32 0-4.55.09-6.78.179-18.286 1.068-30.33 6.497-33.094 15.042-2.766 8.545 3.835 19.939 18.108 31.42 14.897 12.017 36.396 22.876 60.481 30.62 24.086 7.744 47.904 11.394 66.994 10.326 18.287-1.069 30.33-6.498 33.095-15.043 2.765-8.456-3.836-19.938-18.109-31.42-14.897-12.017-36.396-22.876-60.481-30.62-21.32-6.854-42.462-10.504-60.214-10.504z"/>
            <path fill="#DDF5F5" d="M283.283 128.221l10.496 10.496c1.628 1.628 1.628 4.433 0 6.062-1.629 1.628-4.434 1.628-6.062 0l-10.496-10.496c-1.628-1.628-1.628-4.433 0-6.062 1.72-1.628 4.434-1.628 6.062 0z"/>
            <path fill="#52CBCA" d="M290.148 147a6.086 6.086 0 0 1-4.224-1.756l-10.208-10.188c-2.288-2.284-2.288-6.06 0-8.343 2.288-2.284 6.072-2.284 8.36 0l10.208 10.187c2.288 2.284 2.288 6.06 0 8.344-1.144 1.23-2.64 1.756-4.136 1.756zm-10.208-18.53c-.616 0-1.232.263-1.672.702a2.383 2.383 0 0 0 0 3.425l10.208 10.187a2.394 2.394 0 0 0 3.432 0 2.383 2.383 0 0 0 0-3.425L281.7 129.172c-.528-.44-1.144-.703-1.76-.703z"/>
            <path fill="#DDF5F5" d="M262 139.246v14.508c0 2.3-1.969 4.246-4.5 4.246-2.438 0-4.5-1.858-4.5-4.246v-14.508c0-2.3 1.969-4.246 4.5-4.246 2.531 0 4.5 1.946 4.5 4.246z"/>
            <path fill="#52CBCA" d="M258 160c-3.265 0-6-2.7-6-6.12v-14.76c0-3.33 2.647-6.12 6-6.12s6 2.7 6 6.12v14.76c-.088 3.42-2.735 6.12-6 6.12zm0-23.31c-1.324 0-2.47 1.08-2.47 2.52v14.76c0 1.35 1.058 2.52 2.47 2.52 1.412 0 2.47-1.08 2.47-2.52v-14.76c-.088-1.35-1.146-2.52-2.47-2.52z"/>
            <path fill="#DDF5F5" d="M125 76.5a56.495 56.495 0 0 0 28.249 48.93 56.503 56.503 0 0 0 56.502 0A56.495 56.495 0 0 0 238 76.5a56.495 56.495 0 0 0-28.249-48.93 56.503 56.503 0 0 0-56.502 0A56.495 56.495 0 0 0 125 76.5z"/>
            <path fill="#52CBCA" d="M181 135c-32.025 0-58-26.064-58-58 0-32.025 26.064-58 58-58 32.025 0 58 26.064 58 58s-25.975 58-58 58zm0-112.53c-30.067 0-54.442 24.463-54.442 54.441 0 29.979 24.463 54.442 54.442 54.442s54.442-24.463 54.442-54.442c0-29.978-24.375-54.442-54.442-54.442z"/>
            <path fill="#52CBCA" d="M228.009 120c-18.198 0-39.696-3.738-61.373-10.681-24.532-7.922-46.387-18.96-61.641-31.243-15.7-12.64-22.48-25.19-19.18-35.337 6.691-20.65 52.632-23.677 104.55-6.943 24.53 7.922 46.386 18.96 61.64 31.243 15.7 12.64 22.48 25.19 19.18 35.337-3.301 10.147-16.147 16.289-36.307 17.446-2.141.178-4.55.178-6.87.178zM129.08 28.675c-2.32 0-4.55.09-6.78.179-18.286 1.068-30.33 6.497-33.094 15.042-2.766 8.545 3.835 19.939 18.108 31.42 14.897 12.017 36.396 22.876 60.481 30.62 24.086 7.744 47.904 11.394 66.994 10.326 18.287-1.069 30.33-6.498 33.095-15.043 2.765-8.456-3.836-19.938-18.109-31.42-14.897-12.017-36.396-22.876-60.481-30.62-21.32-6.854-42.462-10.504-60.214-10.504z"/>
            <path fill="#FFF" d="M235 76.7c0 30.25-26.85-4.818-56.9-4.818-30.051 0-52.1 35.069-52.1 4.818 0-30.25 24.36-54.7 54.5-54.7S235 46.45 235 76.7z"/>
            <path fill="#FFF" d="M206 39.5a37.496 37.496 0 0 0 18.75 32.476 37.503 37.503 0 0 0 37.5 0A37.496 37.496 0 0 0 281 39.5a37.496 37.496 0 0 0-18.75-32.476 37.503 37.503 0 0 0-37.5 0A37.496 37.496 0 0 0 206 39.5z"/>
            <path fill="#52CBCA" d="M243.5 79C221.695 79 204 61.325 204 39.545 204 17.764 221.695 0 243.5 0S283 17.675 283 39.455C283 61.236 265.305 79 243.5 79zm0-75.43c-19.84 0-35.925 16.068-35.925 35.885 0 19.817 16.086 35.885 35.925 35.885 19.84 0 35.925-16.068 35.925-35.885 0-19.727-16.086-35.884-35.925-35.884z"/>
            <path fill="#52CBCA" d="M262.404 30.252c-3.164 1.822-6.328 3.643-9.58 5.464-1.054.607-1.142 2.341 0 2.948 3.164 1.735 6.328 3.383 9.58 5.117 1.933 1.04 3.69-1.908 1.757-2.949-3.164-1.734-6.327-3.382-9.58-5.116v2.948c3.165-1.82 6.329-3.642 9.58-5.463 1.934-1.127.176-4.076-1.757-2.949zM220.873 33.217c3.146 1.814 6.293 3.627 9.527 5.441v-2.936c-3.147 1.727-6.293 3.368-9.527 5.095-2.01 1.037-.175 4.06 1.748 2.937 3.146-1.728 6.293-3.369 9.527-5.096 1.136-.604 1.136-2.332 0-2.936a925.599 925.599 0 0 0-9.527-5.441c-1.923-1.21-3.671 1.813-1.748 2.936zM244.088 45c-3.866 0-7.088 3.187-7.088 7.219 0 1.031.828 1.781 1.749 1.781 1.013 0 1.75-.844 1.75-1.781 0-1.969 1.564-3.563 3.497-3.563 1.933 0 3.498 1.594 3.498 3.563 0 1.031.829 1.781 1.75 1.781.92 0 1.748-.844 1.748-1.781.184-4.031-2.945-7.219-6.904-7.219z"/>
            <path fill="#FFF" d="M224.114 66L236 73.429 227.954 79 220 78.027z"/>
            <path fill="#52CBCA" d="M237 72.5c0-.964-.806-1.665-1.701-1.665-.537 0-1.075.263-1.343.701-3.223 4.206-9.222 6.046-13.072 6.134 4.297-4.732 2.507-11.216 2.059-12.53 0-.088 0-.176-.09-.176-.268-.613-.895-.964-1.611-.964-.985 0-1.701.789-1.701 1.665 0 .175 0 .35.09.438 0 .088 2.148 6.046-1.702 9.727-.895.876-1.164 2.103-.716 3.242.447 1.14 1.432 1.84 2.686 1.928h.716c4.208 0 11.64-1.928 15.937-7.273.269-.263.448-.701.448-1.227z"/>
        </g>
        <text fill="#FFF" stroke="#52CBCA" font-family="ChalkboardSE-Regular, Chalkboard SE" font-size="170" transform="translate(-5 -62)">
            <tspan x=".63" y="192">4</tspan>
        </text>
        <text fill="#FFF" stroke="#52CBCA" font-family="ChalkboardSE-Regular, Chalkboard SE" font-size="170" transform="translate(-5 -62)">
            <tspan x="286.13" y="192">4</tspan>
        </text>
    </g>
</svg>
