<svg xmlns="http://www.w3.org/2000/svg" width="339" height="208" viewBox="0 0 339 208">
    <g fill="none" fill-rule="evenodd">
        <path fill="#52CBCA" fill-rule="nonzero" d="M151.204 51.692l-.069-.235 33.727-23.89 1.176 1.108-34.834 23.017zM142.9 64.446l-.034-.118 16.871-11.95.588.554L142.9 64.446zm64.829 8.149l.38-.034-3.217-40.43-1.626-.168 4.463 40.632zm6.333 9.647l.144-.013-1.22-15.343-.618-.064 1.694 15.42zm-33.585-9.373l.24.107 11.58-25.466-.925-.645-10.895 26.004z"/>
        <path fill="#FFF" fill-rule="nonzero" d="M172.825 16.12s4.291-7.829 12.522-4.074c8.231 3.756 36.161 15.199 36.161 15.199s4.643 5.066 2.638 10.132-6.507 6.448-9.497 5.562c-2.99-.885-38.096-15.765-38.096-15.765s-6.12-4.11-3.728-11.053z"/>
        <path fill="#DDF5F5" fill-rule="nonzero" d="M222.86 28.486s3.118 2.764 1.121 7.468c-1.997 4.705-6.48 5.988-9.458 5.165-2.977-.822-29.388-11.35-29.388-11.35s3.013-2.993 12.82.79c3.468 1.349 7.076 1.645 10.123.23 2.452-1.151 4.099 1.514 5.465 1.316 6.69-.954 9.317-3.619 9.317-3.619z"/>
        <path fill="#52CBCA" fill-rule="nonzero" d="M95 139.297c0-8.96 1.833-19.688 4.96-27.534 5.467-13.714 16.698-21.34 27.83-30.26 9.165-7.342 22.52-10.746 35.75-10.746 15.25 0 33.159 3.887 43.684 13.363 16.537 14.888 24.856 32.573 24.856 55.177 0 37.853-30.686 68.54-68.54 68.54-37.854 0-68.54-30.687-68.54-68.54z"/>
        <path fill="#FFF" d="M98.456 138.297c0 35.945 29.14 65.085 65.085 65.085 35.945 0 65.084-29.14 65.084-65.085 0-22.733-10.415-43.014-28.075-54.654-10.264-6.764-23.797-10.43-37.01-10.43-14.91 0-27.877 6.54-38.852 14.974-15.48 11.898-26.232 29.076-26.232 50.11z"/>
        <path fill="#DDF5F5" fill-rule="nonzero" d="M183.035 198.16c-48.68 16.14-74.17-21.755-74.17-21.755s47.7 1.59 72.141-25.714c21.23-23.752 23.157-59.718 23.157-59.718s21.433 18.947 20.453 48.045c-.642 19.015-10.04 48.722-41.581 59.143z"/>
        <path fill="#FFF" fill-rule="nonzero" d="M230.77 140.684c.035.21.104.105.104-.454l-.104-.384v.838zm.208-3.56c-.07-.63-.208-1.362-.277-.943.138.628.104.768.242 1.431.035.524-.035.943-.069.838.034.174-.035.838.034 1.117a8.715 8.715 0 0 0 0-2.514c0-.174.035 0 .07.07zm-21.022-45.732l.034-.419c-.034.105-.034.244-.034.419zm-6.939 31.733c.07-.245.104-.35.104-.35-.069.21-.138.384-.104.35zm-2.105 5.096c.034-.104.103-.21.138-.279-.035.105-.104.21-.138.28zm9.044-36.83l-.07.56-.068.523.034-.035c0-.035 0-.105.035-.21 0-.244.034-.558.069-.837zm20.124 38.576c.035.174.07.314.104.454-.035-.14-.035-.28-.104-.454.035 0 .035 0 0 0zm-10.908-28.486l.138.21c.07.069.104.104.173.139l-.31-.35zm5.523 9.46c-.103-.21-.241-.244-.31-.314.103.105.207.28.31.454 0 0 .035-.035 0-.14zm5.385 16.547l.07.314a1.308 1.308 0 0 1-.07-.314zm-15.671-32.221c0-.035-.035-.07-.035-.105-.034 0 0 .035.035.105zm14.601 57.95s.034 0 0 0c.034-.07.034-.07 0 0zm2.002-12.498v.175c.035.034.035.034.07.034l-.07-.209zm-34.484-3.421s0-.035.034-.035c.104-.244.035-.14-.034.035zm-76.942 41.472c1.036.035-1.691.21-.104.21-.138-.035 1.416-.21.104-.21zm110.46-49.082c-.035-.14-.035-.28-.07-.454.035.21.07.349.07.454zM119.482 178.98h.173-.173zm63.411-23.145c.035-.035.138-.07.207-.14-.034 0-.069.035-.207.14zm10.839-13.336l-.242.35c.104-.14.173-.245.242-.35zm-17.605 19.13c-.172.14-.276.175-.517.35.034 0 .069-.035.103-.035.07-.07.207-.175.414-.314zm-7.87 4.888c.035-.035.104-.035.173-.07.069-.035.172-.104.241-.14l-.414.21zm49.914 12.672l.31-.314c-.137.105.657-1.047-.31.314zM231.081 129.842c-.035-.034-.07-.137-.105-.274.035.103.035.206.07.309.035 0 .035 0 .035-.035zm-54.517 32.028l-1.257.824c.35-.24.803-.55 1.257-.824zM160.324 204h.35-.35zm11.211-38.969c-.244.103-.489.24-.768.378-.035.035-.105.069-.14.103.314-.172.594-.343.908-.48zm47.742 12.955c0 .035 0 .035 0 0 0 .035 0 .035 0 0z"/>
        <path fill="#FFF" fill-rule="nonzero" d="M217.743 167.535c-.603 1.208-.168.638-.235.906-.703 1.476-.401.637-.736 1.073-.47.906-.704 1.644-1.105 2.281-.034.034-.134.168-.067 0-.235.47-.637 1.174-1.072 1.879a40.29 40.29 0 0 0-1.205 1.945c-.067.067-.1.101-.134.101.167-.134.234-.134.268-.067-.369.503-.603.973-.804 1.107.234-.302.2-.336.301-.503l-.335.536c-.435.403.47-.738.402-.771-.335.503-.703 1.107-1.071 1.61a36.004 36.004 0 0 1-1.038 1.375c-.201.101 1.34-1.777.468-.838.302-.37.637-.738.938-1.14-.804.804.536-.739-.234 0-.57.77-.938 1.207-1.24 1.643-.167.201-.3.436-.535.704-.201.235-.435.537-.77.906-.235.37.167-.033-.067.336-.201.268-.402.503-.57.704-.167.201-.334.335-.435.47-.268.268-.469.402-.636.57-.368.268-.636.503-1.306 1.275-.335.402-.335.67-1.473 1.61.1-.135.2-.269.267-.436-.703.637-.87.838-1.038 1.04-.2.2-.368.436-1.172 1.04.235-.235 1.072-1.007.871-.84-.502.403-.67.537-.804.705-.134.134-.2.268-.602.57l-.235.034c-.402.302-.77.67-1.172.973-.402.335-.837.637-1.272.973-.201.167-.436.335-.637.503-.234.167-.435.302-.67.47-.468.301-.903.637-1.372.939.1-.101.368-.336-.067-.068-2.344 1.543-5.19 2.952-7.668 3.992l-.905.47c-.234.1-.435.134-.2 0-.972.369-.034.067-.47.302-.535.235-.736.235-.401.067-.201.1-.435.201-.703.335-.268.1-.536.202-.804.336-.57.235-1.205.47-1.808.704a41.486 41.486 0 0 1-3.516 1.04l.368-.134a9.028 9.028 0 0 0-1.507.537c-.402.134-.77.268-1.473.402l.268-.067c-.804.201-1.641.403-2.445.57l-.603.134c-.2.034-.401.068-.636.101-.402.067-.837.168-1.239.235-.803.134-1.607.302-2.344.402-.736.068-1.44.135-2.076.202-.234.1-1.038.201-1.808.268s-1.54.1-1.641.201h-2.511c-.369 0-.804-.033-1.474-.033-.703 0-1.038.134-1.942.167l-.033-.1c-.402.033-.804.033-1.206.067l-.636-.168h-.837c.335.034.703.067.636.1-.636 0-1.44-.066-2.043-.133-.636-.1-1.071-.202-1.105-.235-1.004-.1-2.009-.134-3.014-.302.067-.034.57.034.972.067-1.608-.168-.268-.168-1.742-.302.201.067-.1.034-.167.067-.369-.1-.971-.201-1.607-.335-.637-.168-1.373-.302-1.976-.436l.234-.034c-.536-.134-1.105-.235-1.674-.402-.57-.168-1.139-.302-1.741-.47-.302-.067-.603-.168-.904-.235-.302-.1-.603-.201-.871-.302-.603-.2-1.172-.402-1.775-.603.837.335.603.369-.1.134l-.235-.202c-.469-.1.703.302-.234.034-.87-.369-.536-.335-.034-.168l-1.071-.402c-.067-.067.2.033.301 0-.469-.134-1.808-.805-2.444-1.007l-.034-.067c-1.138-.536-1.975-.872-2.746-1.274-.77-.403-1.506-.705-2.377-1.242-.067.068-.77-.369-1.34-.603a100.028 100.028 0 0 1-4.152-2.785c-.536-.335-.636-.368-.636-.368s.033.067-.201-.068c-.033-.134-1.507-1.207-.703-.704-.904-.637-1.44-1.073-2.043-1.543a140.22 140.22 0 0 1-2.344-1.879c.201.235.469.47.302.37-.402-.302-.838-.806-.737-.772l.1.067c-1.205-.973-2.444-2.281-3.616-3.556-1.139-1.274-2.177-2.55-3.047-3.421l.1.1c-.268-.335-.57-.637-.837-.972l-.402-.504-.2-.234c-.135-.202-.068-.101.033-.034.067.067.134.134.134.067l-.067-.067h2.511c1.005 0 1.942-.033 3.047-.134.904.067 2.478 0 4.119-.168.837-.067 1.674-.168 2.445-.235.803-.067 1.506-.134 2.11-.167l-.135-.034c.603-.134.737-.033 1.206-.1-.067-.034-.67.033-.302-.068 2.612-.335 5.291-.704 7.97-1.14 2.679-.47 5.391-.94 8.037-1.577 1.908-.47 1.004-.57 3.449-1.073l-.637.302c3.818-1.174 7.803-2.348 11.386-3.925-.201.1-.201.134-.57.302.402-.1 1.106-.403 1.708-.67.603-.27 1.105-.538 1.105-.571.57-.235.168 0 .503-.134.401-.135.837-.37 1.272-.604.435-.201.77-.436 1.005-.47.067-.033-.201.134-.335.202.469-.269 2.243-1.107 1.741-.94.67-.302 1.273-.637 1.842-.973.569-.335 1.138-.637 1.64-.872.603-.47 2.177-1.24 2.311-1.51 0 .101.57-.2 1.206-.637.636-.436 1.373-.939 1.74-1.24-.233.2.704-.403.436-.168.837-.638 1.608-1.242 1.407-1.174.401-.269.803-.537 1.205-.839.368-.302.703-.604 1.038-.906.636-.57 1.24-1.073 1.708-1.375.57-.537 1.105-1.107 1.674-1.61.268-.269.536-.503.804-.805a8.79 8.79 0 0 0 .737-.839c.502-.537.97-1.073 1.473-1.61.469-.537.904-1.107 1.373-1.644.033.101-.469.671-.971 1.275-.469.57-1.005 1.107-.87 1.107a18.59 18.59 0 0 0 1.171-1.409c.335-.436.67-.872 1.005-1.275.636-.838 1.272-1.677 2.076-2.717.435-.536-.167.37-.301.537 1.573-2.18 3.047-4.193 4.219-6.273 0 0-.1.235-.235.47.235-.403.603-.906.503-.906l-.235.403c-.468.57.804-1.678.77-1.812-.234.805 1.206-2.012.804-.805.134-.268.302-.637.235-.604.234-.402.334-.503.134-.067.77-1.476.401-1.006 1.138-2.348.034.034-.1.302-.134.47.168-.37.301-.705.502-1.107.168-.403.402-.872.704-1.443 0 .068.067-.033-.1.302.234-.503.468-.972.669-1.408.2-.47.368-.906.57-1.342.367-.906.736-1.812 1.238-2.919-.134.705.368-.738.536-.805l.435-1.24-.234.469c.2-.537.368-1.04.57-1.543.166-.503.334-.973.501-1.41l-.234.806.703-2.013-.469 1.107c.335-1.107-.167.067.369-1.342-.1.302.368-1.073.636-1.61.134-.536.268-1.107.57-1.912.1-.201.066.202.133.067.067-.57.737-2.549.837-3.287-.033.235.034.268.067.201.034-.167.034-.302.034-.47.167-.502.2-.57.234-.469.435-1.543-.301.436.268-1.342-.033.134 0 .067-.067.37.268-.906.469-1.812.67-2.684.2-.872.402-1.745.603-2.583.234-.47-.302 1.476-.067.939.535-2.449.937-5.099 1.372-7.514l-.1.436c-.1-.369.402-1.778.469-2.985-.034.302.033.402.033.335.268-1.644.436-3.388.603-5.904v.302c0-.134.034-.235.034-.369 0-.1.033-.235.033-.369.034-.167.034-.369.034-.536v-.034l.033.034.067.067.1.1c.067.067.134.134.235.202l.268.268.301.302c.235.201.67.637.469.335 2.076 2.516 4.22 4.562 5.76 7.011-.201-.268-.536-.637-.369-.402.502.637.971 1.308 1.474 1.979-.034-.202-.134-.302-.402-.738.234.234.636.771.97 1.274-.669-.872-.1.067.135.503-.034-.067.1.034.1 0 .603 1.141.235.101 1.105 1.61l-.1-.066c.368.536.703 1.04 1.071 1.643.067.302-.401-.57-.468-.57.535.839 1.138 1.61 1.506 2.449-.234-.37-.535-.872-.77-1.241.402.905.469.972.804 1.643l-.034-.067.737 1.51c-.067-.135-.1-.269-.167-.403.77 1.006 1.172 2.248 2.009 3.69-.804-1.409-.201-.201-.335-.268.167.402.368 1.006.268.838.368.705.469 1.241.971 2.214 0 .067.301.805.167.638.402.939-.033-.235.034-.168.703 1.442 1.105 3.556 1.875 5.702.268.94.469 1.51.636 2.047.168.536.302 1.073.536 1.945.067.604-.234-.47-.234-.47.167.973.268 1.711.469 2.65-.067-.167-.067 0-.034.302.134.738.2.47.268 1.476a6.63 6.63 0 0 1-.234-.738c.066.436.133.873.234 1.309.067.436.167.872.2 1.341-.033.235-.133-.536-.2-.872.134 1.007.268 2.65.402 2.952v-.67c.033.368-.067.2-.1-.068-.135-.872-.068-1.275-.034-1.308l.067.637c.067-.335.033-1.006-.1-1.71-.135-.738-.269-1.544-.369-2.18.067.167.134.335.2.536-.1-.436-.2-.872-.334-1.308 0-.302.034-.504.167.134-.1-.94-.2-.805-.234-1.644 0-.1 0-.067.034.034l-.235-.906c.067.168.067-.168.168.403a20.867 20.867 0 0 0-.436-1.98c-.167-.503-.268-.905-.301-1.24l.033.133c-.301-1.107-.334-1.14-.368-1.14-.033.033-.033.134-.335-.705l-.1-1.174-.168-.2c-.067-.236-.2-.672-.134-.605-.335-.805 0 .168-.234-.302-.268-1.107-1.105-2.951-1.038-3.253-.201-.37.335 1.04-.168-.067.034-.403-.569-1.309-.904-2.281.201.268.536 1.174.235.2-.201-.268-.402-.737-.603-1.207-.1-.235-.201-.503-.301-.771-.1-.235-.201-.47-.335-.671-.067 0-.302-.403-.57-1.007a153.52 153.52 0 0 0-1.071-1.979c.033.034-.301-.57-.703-1.341-.436-.772-.971-1.678-1.306-2.281l.033.033c-.234-.168-1.004-1.375-1.607-2.214.067 0 .2.134.57.57l-.537-.805c-.167-.167-.368-.402-.736-.905l.2.134c-.736-1.074-1.607-2.046-2.611-3.388-.134-.034.636 1.174-.503-.168 0-.067 0-.168.335.168-.1-.1-.368-.403-.536-.637l.503.503c-.436-.604-.302-.269-.67-.738.067-.034-.268-.37-.167-.336.1.1.334.436.468.57-.435-.536-.937-1.174-1.071-1.442 0 .067-.067.067-.402-.302-.87-.973-.234-.369-.703-.973-.235-.2-.77-.838-.87-.771-.269-.268-.269-.37-.37-.47-.167-.167-.535-.503-.87-.838-.234-.202-.435-.403-.636-.604-.1-.1-.2-.168-.268-.235l-.1-.1c-.034-.034-.067-.068-.067-.034 0 .335 0 .436.067.201v-.067l.033.034.067.067-.033-.034s-.034-.033-.034 0c-.033.738-.067 1.409-.1 1.946-.067.57-.134 1.107-.201 1.677-.168 1.107-.302 2.247-.47 3.32h-.033c-.133 1.276-.401 2.852-.502 3.791-.067.37-.234.872-.234.705-.168.973-.134 1.107-.469 2.482.134-.973-.134.336.167-1.006-.267 1.24-.368 1.543-.602 2.885 0-.47-.302.939-.436 1.509.1-.302.168-.57.268-.872-.134.67-.301 1.241-.435 1.845l-.034-.336c-.736 2.516-.937 4.663-1.707 6.508-.134.704.468-1.342.368-.738-.167.57-.402 1.174-.57 1.644-.2.47-.368.872-.401 1.04-.57 1.576-.302 1.51-.904 3.153.1-.202.268-.37-.1.872-.436 1.14-.67 1.342-.436.604.1-.269.167-.403.167-.37.134-.368.268-.871.067-.435v.167c-.234.537-.803 2.114-.736 1.711-.268.872-.067.403.167-.235-.301.738-.502 1.275-.737 1.845-.234.57-.435 1.14-.77 1.879.134-.235.268-.436.168-.202-.971 2.147-.335.973-.938 2.45-.435.804 0-.37-.603 1.106-.435.872-.167.134-.067-.235-.502 1.376-1.205 2.45-1.574 3.187l.302-.704c-.168.402-.335.771-.502 1.107l.267-.37c-.2.403-.368.739-.401.705-.168.436.268-.268-.067.604-.302.503-.804 1.644-1.005 1.778.904-1.644-.2.134.536-1.275-.134.268-.302.604-.536 1.006-.033.067 0-.067.067-.167-.938 1.543-.301.771-1.205 2.415.067-.235-.302.335-.47.604.37-.638.269-.269-.033.369-.67 1.006-.67 1.14-.97 1.643l.401-.603c-.067.234-.368.771-.837 1.442-.067.033.402-.637.2-.403-.2.403-.535.839-.87 1.309-.335.47-.703.972-1.071 1.51-.369.469-.134-.034-.47.402-.803 1.207-.97 1.24-1.874 2.448.334-.302.368-.369-.235.537l.737-1.006.368-.503.369-.504c-.268.47-.57.906-.871 1.342.234-.302.469-.604.67-.905.2-.302.368-.57.535-.738-.401.67-.368.57-.1.335l-.502.604c-.168.201-.302.402-.47.637-.3.436-.635.872-1.037 1.342l-.134-.168c-1.206 1.308-1.942 2.516-3.617 4.16l.536-.503c-.167.268-.971 1.073-1.507 1.61 0-.101-.368.2-.636.402.067 0-1.239 1.174-1.306 1.409l-.402.335-.435.302c-.737.604-1.105.973-1.507 1.342-.2.201-.368.37-.603.57-.234.202-.502.436-.87.671.401-.369-.302.067.636-.704-.469.369-.938.67-.904.704-.302.168-1.273 1.074-1.775 1.342-.2.168-.234.268-.804.637-.067.034 0-.033 0-.033 0 .033-.87.637-.335.369a13.95 13.95 0 0 0-1.406.838c-.536.302-1.071.638-1.607.973-1.072.671-2.177 1.275-2.914 1.577l-.904.503c-.301.168-.636.335-.937.503-.637.336-1.273.638-1.809.906.067-.067 0-.034.201-.134-.736.335-.97.47-1.205.637-.235.168-.502.335-1.373.67-.938.303.904-.469.335-.267-.168-.034-.67.2-1.306.47-.636.268-1.373.603-2.01.77l.269-.133c-.905.301-2.177.939-3.65 1.442 0 0 .067-.034 0-.034-.503.235-1.24.504-2.01.805-.401.135-.803.302-1.205.437-.402.134-.804.268-1.172.369.435-.202.636-.235.335-.235-.636.201.234.067-1.072.47-.435.066-1.406.335-1.54.268.402-.1.837-.235 1.239-.37-.67.068-1.607.47-2.244.605l.067-.068c-1.908.537-1.908.638-3.951 1.14h.234c-1.105.403-.97.135-2.076.47l-.368-.067c-.737.202-2.579.638-3.952.94.737-.235 2.311-.57 3.282-.839-.737.168-2.511.503-2.88.637.302-.067.67-.167.971-.2-.435.133-.97.268-1.573.402s-1.273.268-2.01.369c.235-.269-3.884.536-5.023.436-2.645.402-5.257.536-8.338.738 1.106.134-.904.067-.703.268-.736.034-1.004.067-1.071.067-.737 0-1.474-.033-2.21-.033-.536-.034.67-.067.602-.101-1.573.034-.67-.067-1.707-.1.2.066-.536.1-1.44.1l1.272.067c-.87.067-1.34.034-1.741 0-.301-.033-.603-.033-.904-.067-.302-.034-.77-.034-1.24-.067.135.201.302.47.503.738s.469.604.703.94c-.234-.303-.535-.638-.803-1.007a41.09 41.09 0 0 0 2.042 2.583c.703.805 1.407 1.576 1.875 1.945.134.168.268.403-.1.034.938 1.006 2.01 2.113 3.114 3.086.536.503 1.072.973 1.574 1.409.502.436.938.872 1.34 1.207l-.201-.1c.401.335.736.503 1.205.973-.033 0-.2-.101 0 .067.234.167 1.139.771 1.64 1.24l-.501-.301c.502.436 1.004.805 1.44 1.107.435.302.87.604 1.272.872.837.503 1.607 1.006 2.578 1.577-.033.067.369.369.905.771.267.201.569.403.87.57.302.168.57.336.804.504h-.034c2.713 1.576 4.755 2.415 7.434 3.488.402.201.971.436 1.608.738l.502.201c.167.068.368.135.536.202.368.134.77.268 1.138.402l1.206.403c.402.134.803.235 1.205.369.804.235 1.574.47 2.277.67-.435-.134.1-.1.603 0 .67.168 1.842.303 1.708.437l-.235-.067c.134.067.302.134.503.2.2.068.468.135.736.169.536.1 1.172.2 1.708.301l.201-.134c.335.101.737.168 1.105.269.402.067.804.1 1.24.167.836.101 1.74.202 2.577.235.838.034 1.675.067 2.345.1.334.034.67.034.937.068.268.033.536.033.703.067.704-.034 1.54-.067 2.21-.1l-.033.1c.971.034 1.674-.034 2.444-.067.77-.067 1.608-.1 2.78-.201-.168.033-.302.1-.47.134 1.34-.134 1.642-.47 2.847-.638l.369.101.87-.1c.302-.034.57-.101.87-.135l1.709-.302 1.707-.301c.57-.135 1.105-.302 1.675-.47-.034.033-.1.1-.436.168.536-.135 1.574-.37 2.411-.57.838-.202 1.474-.437 1.273-.47.067.1 2.277-.671 3.482-1.107l-.167.134c.234-.1.435-.201.603-.268.167-.067.301-.135.435-.202a26.52 26.52 0 0 1 1.34-.536c.334-.101.3-.034-.134.1 1.105-.369.837-.369 2.143-.872l-.47.268c1.106-.436 1.005-.436 1.608-.771.168-.067.402-.168.603-.268l.703-.302c.469-.202.87-.336.938-.336.134-.134.703-.436 1.34-.738.1 0-.135.134-.235.202.904-.437 1.54-.806 2.11-1.141.569-.335 1.071-.67 1.674-.973.033 0 .134-.033.234-.067-.67.403-1.306.772-1.741 1.006-.435.235-.703.37-.636.336.033.067 1.172-.503.335.067.234-.134.468-.302.77-.47.268-.2.569-.402.87-.603a73.245 73.245 0 0 1 1.775-1.14c.067-.034.1-.068.168-.068l-.1.067c.233-.168.468-.302.635-.436.335-.201.57-.335.87-.57.168 0 1.206-.839 1.742-1.208-.1-.033.57-.537-.1-.134.1-.067-.1.067-.436.335-.067.068-.167.135-.2.168l.033-.033c-.335.234-.77.603-1.306.939.402-.302.804-.671 1.406-1.04.235-.235.47-.503.637-.637.402-.202.937-.57 1.373-.873.468-.335.87-.603.97-.637.37-.302.77-.704 1.173-1.04l1.205-1.107c.737-.771 1.407-1.476 1.775-1.979.368-.436.469-.436.636-.57-.2.235-.469.537-.569.67a44.99 44.99 0 0 1 1.406-1.576c.47-.537.838-1.04.871-1.174.938-1.04-.435.671.804-.805l-.134.235a20.907 20.907 0 0 0 1.64-2.046c.47-.671.905-1.342 1.34-2.013.435-.67.837-1.375 1.306-2.113.435-.738.938-1.543 1.54-2.415-.167.234-.234.369-.268.402 1.24-2.046 2.344-4.26 3.316-6.508.97-2.247 1.808-4.562 2.611-6.776.436-1.274.402-1.442.57-2.247l.167-.268.268-1.376c.2-.972.469-1.778.703-2.683.134-.436.235-.906.369-1.41.1-.502.2-1.073.267-1.676l-.133.302c.2-.873.401-2.818.468-2.684 0-.1-.033-.302.034-.637l.067-.034.1-1.107.067-1.107c.201-1.71.201.302.402-2.214.067-.939-.033-2.65-.067-2.314-.033.369-.067.973-.134.973v-.84c-.134-.167-.268-.804-.469 1.242v1.442l-.1.47.1-1.208c-.134.671-.1 1.141-.1 1.61-.067.101-.1.303-.134.604v1.443c-.067.168-.034-.638-.201.302-.033.67.234-.604.134.47-.167.67-.167.469-.234 1.274-.067.1-.067-.067-.034-.403-.067.738-.268 1.913-.268 2.282-.1.335-.2.939-.301 1.442-.1.503-.201.906-.268.839-.034.234-.134 1.274-.301 1.912.1-1.208-.603 2.415-.737 2.046-.067.905-.804 3.153-1.24 4.662.034-.1.034-.268.101-.402-.301.839-.435 1.073-.636 1.61.067.168-.368 1.476-.57 2.214-.535.973.101-.67-.133-.403.134 0-.636 1.812-.402 1.476-.402.738-.301.671-.57 1.007.101.201-.3.738-.502 1.409-.569 1.073-.267.234-.803 1.442-.435.47.067-.604.067-.604zm-16.637 26.003c.357-.168.612-.302.816-.37-.153.068-.408.169-.816.37zm-3.261 2.084c.208-.225.494-.495.78-.81.078-.044.026.09-.156.27.078-.09-.338.315-.624.54zm6.394-3.037c-.43.467-.6.584-.687.584.215-.175.43-.467.773-.76l.043-.058c0 .059-.043.117-.129.234z"/>
        <path fill="#FFF" fill-rule="nonzero" d="M206.36 191.674a.485.485 0 0 1 .142-.103c-.07.034-.141.103-.212.137l-.105.103c.07-.068.14-.103.176-.137zm4.509-100.667v.069c0-.034 0-.103.035-.103l-.035.034zm-47.686 112.615v.035l.246-.035h-.246zm57.512-100.77c0 .035.035.07.105.172 0 0-.035-.069-.105-.172zm3.451 5.597l.423.824c-.211-.343-.317-.618-.423-.824zm2.219 4.532l.07.069-.07-.069zm-31.345 28.806c-.035.069-.07.103-.105.172-.212.412-.07.137.105-.172zm10.038-21.665c-.07.24-.141.481-.212.756.141-.412.282-.721.212-.756zM176.6 161.323c-.035.034-.106.069-.14.103l.14-.103zm27.893-39.415c.141-.412.282-.721.352-1.065-.105.344-.246.721-.352 1.065zm27.365 11.948v.24l.035.035-.035-.275zm.035.275l.036.274c0-.137-.036-.24-.036-.274zm.106.824c0-.172-.035-.378-.07-.55.035.172.035.412.07.55zm-.95-7.657l-.036-.068c0 .034 0 .068.035.068zm-.424-1.991c.106.48.177 1.202.353 1.854l.035.069c-.106-.31-.247-1.477-.388-1.923zm-2.042-8.206c.211.515.387 1.064.563 1.614-.07-.31-.14-.687.106.034-.599-2.026.106.48-.67-1.648zm-2.008-4.875c.423.824.036-.035.07 0-.281-.515-.351-.618-.07 0zm-17.398-9.202l-.07-.103c-.141.687.035 0 .07.103zm-1.091 7.176l.21-.652v-.31l-.21.962zm-1.761 3.983l.07-.31c-.106.378-.176.756-.282 1.134.07-.24.141-.515.212-.824zm-36.628 50.333h.247c.422-.24.458-.378-.247 0zm-26.202 9.717c-.317.034-1.092.171-1.55.309.599-.138 1.233-.24 1.55-.31zm12.185 29.698c-.176 0-.387-.034-.563-.034.352.069.704.069 1.056.103l-.493-.069z"/>
        <path fill="#52CBCA" fill-rule="nonzero" d="M203.07 166.96c4.73-4.966 12.615-3.803 17.11 1.903.638.81 1.142 1.62 1.578 2.5.033-.07.1-.176.134-.246-.403-.846-.94-1.656-1.51-2.43-2.416-3.065-5.871-4.932-9.428-5.108-3.086-.14-5.938.987-8.052 3.205-2.114 2.22-3.187 5.213-3.053 8.454.168 3.768 1.946 7.36 4.865 9.897a12.949 12.949 0 0 0 3.858 2.324c.067-.07.134-.105.202-.176-1.376-.493-2.685-1.268-3.892-2.324-5.436-4.72-6.543-13.032-1.812-17.998z"/>
        <path fill="#52CBCA" fill-rule="nonzero" d="M206.567 182.74c-2.27-1.907-3.65-4.643-3.785-7.462-.108-2.432.703-4.671 2.325-6.33 1.514-1.547 3.54-2.404 5.757-2.404h.433c2.784.138 5.432 1.548 7.325 3.87.513.635.946 1.326 1.297 2.045.054-.083.081-.138.135-.221a10.99 10.99 0 0 0-1.27-1.963c-3.622-4.477-9.974-5.39-13.785-1.492-3.811 3.897-2.92 10.392 1.46 14.096a9.822 9.822 0 0 0 3.135 1.824c.054-.056.135-.11.189-.166a10.34 10.34 0 0 1-3.216-1.797zM112.824 104.757h.192c1.055 0 2.087-.418 2.95-1.207 1.32-1.23 2.088-3.134 2.088-5.247 0-1.741-.528-3.366-1.463-4.573-.024.023-.072.046-.096.07.887 1.16 1.44 2.739 1.44 4.503 0 3.645-2.328 6.477-5.111 6.338-1.608-.07-3-1.138-3.863-2.693a.41.41 0 0 1-.096.116c.888 1.578 2.327 2.623 3.959 2.693z"/>
        <path fill="#52CBCA" fill-rule="nonzero" d="M112.565 106.588c3.99.2 7.327-3.88 7.327-9.128 0-2.542-.791-4.815-2.064-6.487-.034.033-.103.067-.138.1 1.273 1.672 2.03 3.98 2.03 6.387 0 2.908-1.066 5.65-2.89 7.322-1.238 1.137-2.717 1.739-4.265 1.638-2.236-.1-4.23-1.638-5.435-3.878-.034.067-.069.1-.103.167 1.238 2.24 3.233 3.778 5.538 3.879zM155.27 151.622c-7.326 0-13.324-5.962-13.324-13.325 0-7.362 5.962-13.324 13.324-13.324 7.363 0 13.325 5.962 13.325 13.324 0 7.363-5.962 13.325-13.325 13.325zm0-24.729c-6.27 0-11.404 5.101-11.404 11.404 0 6.27 5.101 11.404 11.404 11.404 6.27 0 11.404-5.1 11.404-11.404 0-6.27-5.1-11.404-11.404-11.404zM224.08 36.242c.034-.069.103-.344.172-.688.174-.654.381-1.617.381-2.134.208-4.095-1.732-7.605-5.023-8.947L183.472 9.745c-3.707-1.514-8.142.138-10.81 4.06a3.838 3.838 0 0 0-.346.551c-.173.31-.347.62-.381.62l-.035.069-.035.103c0 .034-.104.344-.173.722-.07.241-.104.448-.138.654-.867 4.646 1.108 8.913 4.816 10.427l36.137 14.763c3.257 1.342 7.137.206 9.874-2.857.347-.378.867-1.204 1.213-1.789.173-.31.347-.55.381-.62l.07-.103.034-.103zM174.047 14.7c2.218-3.234 5.856-4.68 8.835-3.44l36.138 14.762c2.598 1.067 4.157 3.923 3.984 7.33 0 .31-.139.963-.312 1.583l-48.818-19.96a.749.749 0 0 1 .173-.275zm47.12 23.056c-2.251 2.547-5.404 3.476-8.003 2.41l-36.137-14.764c-2.98-1.204-4.539-4.748-3.846-8.602 0-.07.035-.207.07-.31l48.818 19.924c-.347.55-.728 1.101-.901 1.342z"/>
        <path fill="#FFF" fill-rule="nonzero" d="M186.054 11.668c3.723-8.855 14.031-13.072 23.051-9.453 9.02 3.62 13.315 13.74 9.629 22.596"/>
        <path fill="#DDF5F5" fill-rule="nonzero" d="M206.615 19.511c3.728-8.761-7.673-21.556 1.448-17.975 9.122 3.581 13.465 13.594 9.737 22.356"/>
        <path fill="#52CBCA" fill-rule="nonzero" d="M217.8 24.81l-1.503-.626c3.348-8.32-.547-17.895-8.747-21.306-8.167-3.412-17.563.557-20.911 8.912l-1.504-.626c3.69-9.192 14.043-13.578 23.03-9.818 9.02 3.725 13.36 14.274 9.635 23.465z"/>
        <path fill="#52CBCA" fill-rule="nonzero" d="M211.816 15.559c.115.443.23.92.306 1.397.038.375.574.58.957.477.46-.102.574-.477.536-.852-.077-.477-.192-.92-.306-1.397-.268-.852-1.761-.477-1.493.375zM202.283 6.054c3.024.327 5.694 2.07 7.527 4.723.515.727 1.416-.29.901-1.017-2.09-2.98-5.115-4.796-8.46-5.16-.772-.109-.772 1.345.032 1.454z"/>
        <path fill="#FFF" fill-rule="nonzero" d="M196.667 28.314a2.297 2.297 0 1 0 1.747-4.249 2.297 2.297 0 0 0-1.747 4.249z"/>
        <path fill="#52CBCA" fill-rule="nonzero" d="M197.536 29.405c-.41 0-.818-.068-1.227-.239a3.22 3.22 0 0 1-1.739-4.203c.682-1.64 2.557-2.427 4.193-1.743.784.342 1.431.957 1.738 1.743.341.786.341 1.674 0 2.46-.34.786-.954 1.436-1.738 1.743-.375.171-.784.24-1.227.24zm0-5.092c-.716 0-1.432.445-1.704 1.162-.375.957.068 2.05 1.022 2.427.954.376 2.045-.069 2.42-1.026.205-.444.17-.956 0-1.435-.204-.444-.545-.82-1.022-.99-.239-.07-.478-.138-.716-.138z"/>
        <path fill="#FFF" fill-rule="nonzero" d="M188.397 25.557a2.297 2.297 0 1 0 1.747-4.248 2.297 2.297 0 0 0-1.747 4.248z"/>
        <path fill="#52CBCA" fill-rule="nonzero" d="M189.275 26.649a3.14 3.14 0 0 1-1.227-.24c-.784-.34-1.432-.955-1.738-1.74a3.08 3.08 0 0 1 0-2.457c.34-.784.954-1.433 1.738-1.74a3.07 3.07 0 0 1 2.454 0 3.214 3.214 0 0 1 1.738 4.197c-.477 1.229-1.704 1.98-2.965 1.98zm0-5.085c-.239 0-.477.034-.716.137-.443.204-.818.546-.988 1.023-.205.444-.17.956 0 1.434.204.443.545.819 1.022.99.955.375 2.045-.07 2.42-1.025.375-.955-.068-2.047-1.022-2.422a1.778 1.778 0 0 0-.716-.137z"/>
        <path fill="#FFF" fill-rule="nonzero" d="M205.857 31.99a2.297 2.297 0 1 0 1.746-4.249 2.297 2.297 0 0 0-1.746 4.249z"/>
        <path fill="#52CBCA" fill-rule="nonzero" d="M206.73 33.081c-.41 0-.82-.068-1.23-.239a3.213 3.213 0 0 1-1.74-4.197c.341-.785.956-1.433 1.74-1.74a3.078 3.078 0 0 1 2.459 0 3.213 3.213 0 0 1 1.74 4.197c-.477 1.228-1.706 1.98-2.97 1.98zm0-5.084c-.24 0-.478.034-.717.136-.444.205-.82.546-.99 1.024-.375.955.068 2.047 1.024 2.423.956.375 2.048-.069 2.424-1.024.375-.956-.069-2.048-1.024-2.423a1.783 1.783 0 0 0-.717-.136zM192.709 111.39a7.809 7.809 0 0 1-2.587-.434c-2.217-.766-4.099-2.498-5.174-4.73-1.075-2.232-1.209-4.763-.403-6.962.706-1.899 2.083-3.398 3.864-4.197 3.897-1.732 8.7.3 10.716 4.53 2.016 4.264.538 9.228-3.292 11.06-.94.5-2.016.733-3.124.733zm-1.25-15.7a6.35 6.35 0 0 0-2.474.514c-1.496.667-2.657 1.938-3.268 3.544-.702 1.877-.58 4.058.336 5.966.917 1.908 2.535 3.392 4.429 4.058 1.65.575 3.36.484 4.856-.212 3.268-1.575 4.49-5.815 2.78-9.449-1.345-2.756-4.002-4.422-6.659-4.422zM117.646 172.676c-3.05 0-6.1-1.92-7.576-5.046-1.968-4.167-.525-9.017 3.214-10.807 1.706-.814 3.706-.912 5.576-.26 2.165.748 4.002 2.44 5.051 4.622 1.05 2.18 1.181 4.655.394 6.803-.689 1.856-2.034 3.32-3.772 4.102a7.378 7.378 0 0 1-2.887.586zm-1.24-15.212c-.874 0-1.748.202-2.535.578-3.118 1.504-4.283 5.553-2.651 9.023 1.66 3.47 5.565 5.148 8.713 3.731 1.428-.636 2.535-1.85 3.118-3.384.67-1.793.553-3.875-.32-5.697-.875-1.822-2.42-3.24-4.226-3.875a5.958 5.958 0 0 0-2.098-.376z"/>
        <text fill="#FFF" stroke="#52CBCA" font-family="ChalkboardSE-Regular, Chalkboard SE" font-size="170" transform="translate(-11)">
            <tspan x=".13" y="200">5</tspan>
        </text>
        <text fill="#FFF" stroke="#52CBCA" font-family="ChalkboardSE-Regular, Chalkboard SE" font-size="170" transform="translate(-11)">
            <tspan x="256.13" y="200">0</tspan>
        </text>
    </g>
</svg>
