<svg xmlns="http://www.w3.org/2000/svg" width="1617" height="619" viewBox="0 0 1617 619">
    <g fill="none" fill-rule="evenodd" transform="translate(0 1)">
        <path stroke="#9B9B9B" stroke-linecap="round" stroke-linejoin="round" d="M434.036 230L430 233.347l4.036 3.653M442 230l4.036 3.347L442 237M645.036 530L641 533.347l4.036 3.653M688 1l4.036 3.347L688 8M551 200l4.036 3.347L551 207M361.513 477v-11M477.513 509v-11M432.513 108V97M670.513 368v-11M516.673 5.5h10.845M523 11V0M172.673 147.5h10.845M177 153v-11"/>
        <ellipse cx="962.549" cy="136.5" stroke="#9B9B9B" rx="5.549" ry="5.5"/>
        <ellipse cx="50.045" cy="311" stroke="#9B9B9B" rx="5.045" ry="5"/>
        <path stroke="#9B9B9B" stroke-linecap="round" stroke-linejoin="round" d="M949.098 247c0-3.314-2.484-6-5.549-6-3.065 0-5.549 2.686-5.549 6M755.098 31c0-3.314-2.484-6-5.549-6-3.065 0-5.549 2.686-5.549 6M978.157 441.979c1.894-1.138 2.498-3.61 1.35-5.52-1.148-1.91-3.613-2.537-5.507-1.399M956.72 44.714l7.96 7.89M809.036 579L805 582.347l4.036 3.653M1616.036 350l-4.036 3.347 4.036 3.653M870 430l4.036 3.347L870 437M817 579l4.036 3.347L817 586M803.513 108V97M887.673 75.5h10.845M894 81V70M990.673 558.5h10.845M997 564v-11"/>
        <ellipse cx="1357.549" cy="136.5" stroke="#9B9B9B" rx="5.549" ry="5.5"/>
        <ellipse cx="511.045" cy="391" stroke="#9B9B9B" rx="5.045" ry="5"/>
        <path fill="#B6B6B6" fill-rule="nonzero" d="M479 366c-8.837 0-16-7.163-16-16s7.163-16 16-16 16 7.163 16 16-7.163 16-16 16zm0-1.704c7.895 0 14.296-6.4 14.296-14.296 0-7.895-6.4-14.296-14.296-14.296-7.895 0-14.296 6.4-14.296 14.296 0 7.895 6.4 14.296 14.296 14.296zm5.812-13.538h-5.15v1.233h5.15c.494 0 .895.337.895.751 0 .415-.4.751-.895.751h-5.15v3.925c0 .415-.4.751-.894.751s-.895-.336-.895-.75v-3.926h-4.606c-.494 0-.894-.336-.894-.75 0-.415.4-.752.894-.752h4.606v-1.233h-4.606c-.494 0-.894-.337-.894-.751 0-.415.4-.751.894-.751h4.606v-.76l-4.712-4.844c-.313-.322-.256-.794.127-1.057.383-.262.946-.214 1.259.107l4.218 4.336 4.497-4.343c.324-.313.89-.346 1.262-.074.373.272.413.746.089 1.06l-4.95 4.78v.795h5.15c.493 0 .894.336.894.751s-.4.75-.895.75zM938 430a9 9 0 1 1 0-18 9 9 0 0 1 0 18zm0-.959a8.041 8.041 0 1 0 0-16.082 8.041 8.041 0 0 0 0 16.082zm3.27-7.615h-2.897v.694h2.896c.278 0 .504.19.504.422 0 .234-.226.423-.504.423h-2.896v2.208c0 .233-.226.422-.504.422s-.503-.189-.503-.422v-2.208h-2.59c-.278 0-.504-.19-.504-.423 0-.233.226-.422.503-.422h2.591v-.694h-2.59c-.278 0-.504-.189-.504-.422 0-.233.226-.423.503-.423h2.591v-.427l-2.65-2.725c-.176-.18-.144-.447.07-.594a.571.571 0 0 1 .709.06l2.373 2.439 2.53-2.443a.573.573 0 0 1 .71-.042c.21.153.231.42.05.596l-2.785 2.689v.447h2.896c.278 0 .504.19.504.423 0 .233-.226.422-.504.422zM9 434a9 9 0 1 1 0-18 9 9 0 0 1 0 18zm0-.959a8.041 8.041 0 1 0 0-16.082 8.041 8.041 0 0 0 0 16.082zm3.27-7.615H9.372v.694h2.896c.278 0 .504.19.504.422 0 .234-.226.423-.504.423H9.373v2.208c0 .233-.226.422-.504.422s-.503-.189-.503-.422v-2.208h-2.59c-.278 0-.504-.19-.504-.423 0-.233.226-.422.503-.422h2.591v-.694h-2.59c-.278 0-.504-.189-.504-.422 0-.233.226-.423.503-.423h2.591v-.427l-2.65-2.725c-.176-.18-.144-.447.07-.594a.571.571 0 0 1 .709.06l2.373 2.439 2.53-2.443a.573.573 0 0 1 .71-.042c.21.153.231.42.05.596l-2.785 2.689v.447h2.896c.278 0 .504.19.504.423 0 .233-.226.422-.504.422z"/>
        <g transform="translate(1067 360)">
            <ellipse cx="26.5" cy="26" stroke="#9B9B9B" rx="26.5" ry="26"/>
            <path fill="#9B9B9B" fill-rule="nonzero" d="M37.824 25.8c-.587-.791-1.376-1.404-2.393-1.851 1.34-1.25 1.933-3.038 1.726-5.25-.182-2.034-1.102-3.588-2.734-4.62-1.18-.746-2.746-1.23-4.77-1.47V8h-1.47v4.427l-.754-.003c-1.02-.003-2.426-.008-3.345-.004V8h-1.47v4.467c-.545.01-1.085.01-1.61.01L14 12.537l.012 1.532 3.295-.028v22.81h-3.301v1.531h4.036c.403 0 1.544.006 2.648.011l1.924.01V43h1.47v-4.53c.846.002 2.108-.007 3.103-.015l.996-.006V43h1.47v-4.645c2.697-.212 4.639-.74 6.074-1.643a6.488 6.488 0 0 0 2.208-2.283c.552-.966.894-2.141 1.018-3.495.19-2.14-.19-3.867-1.129-5.134zM20.948 14.08c.648 0 1.317 0 2-.019l.394-.03c.618-.016 2.806-.009 4.114-.004l.769.002v.046l.681.06c5.161.286 6.67 2.204 6.934 5.097.211 2.213-.534 3.733-2.278 4.646l-.06.032H18.686v-9.812l2.26-.018zm16.59 16.403c-.38 4.342-2.925 5.816-8.752 6.17l-.695.042c-.27.007-.622.01-1.006.013-1.366.01-3.238.025-3.809.01l-.297-.009v-.058c-.332 0-1.323-.005-2.371-.01l-1.92-.01V25.31h15.318c2.334 0 3.801 2.114 3.533 5.172z"/>
        </g>
        <g transform="translate(523 103)">
            <circle cx="12.5" cy="12.5" r="12.5" stroke="#9B9B9B"/>
            <path fill="#9B9B9B" fill-rule="nonzero" d="M18.436 12.646c-.282-.385-.661-.682-1.149-.9.643-.607.928-1.475.828-2.55-.087-.987-.529-1.742-1.312-2.243-.567-.363-1.318-.597-2.29-.715V4h-.705v2.15l-.362-.001c-.49-.002-1.165-.004-1.606-.002V4h-.705v2.17c-.262.005-.521.005-.773.005L7 6.203l.006.744 1.581-.013v11.079H7.003v.744H8.94l1.271.005.924.004V21h.705v-2.2c.407 0 1.012-.004 1.49-.007l.478-.004V21h.705v-2.256c1.295-.103 2.227-.36 2.916-.798a3.135 3.135 0 0 0 1.06-1.11c.265-.468.43-1.04.488-1.697.091-1.039-.091-1.878-.541-2.493zm-8.101-5.693c.31 0 .632 0 .96-.01l.19-.014c.296-.008 1.346-.004 1.974-.002h.369v.023l.327.03c2.477.138 3.201 1.07 3.328 2.475.102 1.075-.256 1.813-1.093 2.257l-.03.015H9.25V6.962l1.085-.01zm7.964 7.967c-.183 2.109-1.405 2.825-4.202 2.996l-.333.02c-.13.005-.299.006-.483.007-.656.005-1.554.012-1.828.005l-.143-.004v-.028l-1.138-.005-.922-.005v-5.498h7.353c1.12 0 1.824 1.027 1.696 2.512z"/>
        </g>
        <g transform="rotate(-20 1590.602 -1666.788)">
            <circle cx="9.5" cy="9.5" r="9.5" stroke="#9B9B9B"/>
            <path fill="#9B9B9B" fill-rule="nonzero" d="M13.577 9.612a2.096 2.096 0 0 0-.862-.688c.482-.465.696-1.128.621-1.95-.065-.755-.396-1.333-.984-1.716-.425-.277-.988-.457-1.717-.546V3h-.53v1.644h-.27c-.368-.002-.874-.004-1.205-.002V3h-.529v1.66c-.196.003-.39.003-.58.003L5 4.685l.004.569 1.187-.01v8.472H5.002v.568h1.453l.954.005.692.003V16h.53v-1.682c.304 0 .758-.003 1.116-.006l.359-.002V16h.529v-1.725c.97-.08 1.67-.275 2.187-.61.336-.219.604-.504.794-.849.2-.358.323-.795.367-1.298.068-.794-.068-1.436-.406-1.906zM7.5 5.258c.233 0 .474 0 .72-.007l.142-.011c.223-.006 1.01-.004 1.481-.002l.277.001v.017l.245.022c1.858.107 2.401.819 2.496 1.893.076.823-.192 1.387-.82 1.726l-.022.012H6.688V5.265l.813-.007zm5.973 6.092c-.137 1.613-1.053 2.16-3.151 2.292l-.25.016-.362.005c-.492.003-1.166.009-1.372.003l-.106-.003v-.021l-.854-.005c-.248 0-.5-.002-.691-.003V9.429h5.514c.84 0 1.369.786 1.272 1.921z"/>
        </g>
        <g transform="rotate(-20 1062.375 -3894.306)">
            <circle cx="9.5" cy="9.5" r="9.5" stroke="#9B9B9B"/>
            <path fill="#9B9B9B" fill-rule="nonzero" d="M13.577 9.612a2.096 2.096 0 0 0-.862-.688c.482-.465.696-1.128.621-1.95-.065-.755-.396-1.333-.984-1.716-.425-.277-.988-.457-1.717-.546V3h-.53v1.644h-.27c-.368-.002-.874-.004-1.205-.002V3h-.529v1.66c-.196.003-.39.003-.58.003L5 4.685l.004.569 1.187-.01v8.472H5.002v.568h1.453l.954.005.692.003V16h.53v-1.682c.304 0 .758-.003 1.116-.006l.359-.002V16h.529v-1.725c.97-.08 1.67-.275 2.187-.61.336-.219.604-.504.794-.849.2-.358.323-.795.367-1.298.068-.794-.068-1.436-.406-1.906zM7.5 5.258c.233 0 .474 0 .72-.007l.142-.011c.223-.006 1.01-.004 1.481-.002l.277.001v.017l.245.022c1.858.107 2.401.819 2.496 1.893.076.823-.192 1.387-.82 1.726l-.022.012H6.688V5.265l.813-.007zm5.973 6.092c-.137 1.613-1.053 2.16-3.151 2.292l-.25.016-.362.005c-.492.003-1.166.009-1.372.003l-.106-.003v-.021l-.854-.005c-.248 0-.5-.002-.691-.003V9.429h5.514c.84 0 1.369.786 1.272 1.921z"/>
        </g>
        <path fill="#B9B9B9" fill-rule="nonzero" d="M1024 78c-12.15 0-22 9.85-22 22s9.85 22 22 22 22-9.85 22-22-9.85-22-22-22zm0 42c-11.028 0-20-8.972-20-20s8.972-20 20-20 20 8.972 20 20-8.972 20-20 20zm1.795-20.597l-.54-.167v-9.29l1.03.356c1.081.373 1.947 1.136 2.566 2.253.098.143.317.222.635.234a.629.629 0 0 0 .545-.328c.126-.326.149-.592.064-.73-1.066-1.728-2.485-2.773-4.219-3.107l-.622-.122v-1.763c0-.265-.062-.473-.173-.605-.042-.04-.18-.134-.581-.134-.262 0-.454.058-.58.17-.096.093-.16.31-.174.57v1.82l-.69.075c-1.409.144-2.572.68-3.464 1.599-1.036 1.013-1.571 2.393-1.592 4.098 0 2.738 1.698 4.563 5.189 5.581l.557.16v10.025l-.989-.279c-1.267-.36-2.327-1.157-3.15-2.368-.173-.247-.435-.37-.817-.383-.256 0-.377.075-.456.265-.112.393-.093.708.054.958 1.13 1.75 2.715 2.799 4.706 3.117l.652.101v1.752c0 .294.058.501.173.605.042.04.18.134.581.134a.947.947 0 0 0 .583-.198c.114-.086.171-.268.171-.541v-1.745l.642-.107a6.416 6.416 0 0 0 3.309-1.622c1.17-1.084 1.774-2.459 1.795-4.084 0-3.15-1.703-5.212-5.205-6.3zM1023 99l-1.036-.506c-1.937-.949-2.934-2.337-2.964-4.128 0-1.284.376-2.345 1.112-3.147.48-.569 1.168-.93 2.043-1.078L1023 90v9zm4.69 9.563a5.146 5.146 0 0 1-1.714 1.064L1025 110v-10l1.061.567c1.923 1.039 2.913 2.66 2.939 4.821 0 1.272-.44 2.34-1.31 3.175z"/>
        <ellipse cx="189.045" cy="493" stroke="#9B9B9B" rx="5.045" ry="5"/>
        <ellipse cx="1280.045" cy="321" stroke="#9B9B9B" rx="5.045" ry="5"/>
        <path stroke="#9B9B9B" stroke-linecap="round" stroke-linejoin="round" d="M1344.098 247c0-3.314-2.484-6-5.549-6-3.065 0-5.549 2.686-5.549 6M1150.098 31c0-3.314-2.484-6-5.549-6-3.065 0-5.549 2.686-5.549 6M268.157 334.979c1.894-1.138 2.498-3.61 1.35-5.52-1.148-1.91-3.613-2.537-5.507-1.399M1373.157 441.979c1.894-1.138 2.498-3.61 1.35-5.52-1.148-1.91-3.613-2.537-5.507-1.399"/>
        <ellipse cx="1505.036" cy="211" stroke="#9B9B9B" rx="4.036" ry="4"/>
        <path stroke="#9B9B9B" stroke-linecap="round" stroke-linejoin="round" d="M1351.72 44.714l7.96 7.89M1200.036 230l-4.036 3.347 4.036 3.653M1209 230l4.036 3.347L1209 237M272.036 396L268 399.347l4.036 3.653M1412.036 610l-4.036 3.347 4.036 3.653M1455 1l4.036 3.347L1455 8M282 396l4.036 3.347L282 403M1244.513 509v-11M1199.513 108V97M1437.513 368v-11M1283.673 5.5h10.845M1290 11V0"/>
    </g>
</svg>
